<svg width="197" height="49" viewBox="0 0 197 49" fill="none" xmlns="http://www.w3.org/2000/svg">
<g clip-path="url(#clip0)">
<path d="M65.5493 32.0464H54.2307V48.0706H65.5493V32.0464Z" fill="black"/>
<path d="M16.7692 24.0353C16.7722 25.097 16.9915 26.147 17.4138 27.1211C17.8361 28.0952 18.4525 28.973 19.2253 29.7009C20.8255 31.2173 22.9493 32.0576 25.1538 32.0464H38.3464V48.0707H25.1538C11.2685 48.0707 0 37.3051 0 24.0353C0 10.7656 11.2685 0 25.1538 0H65.5494V16.0201H25.1538C22.949 16.0095 20.8252 16.8505 19.2253 18.3677C18.452 19.0957 17.8354 19.9738 17.413 20.9483C16.9907 21.9228 16.7717 22.9733 16.7692 24.0353Z" fill="black"/>
</g>
<path d="M86.2711 11.9491H81.3603V34.2427H77.7803V11.9491H72.8718V9.8623H86.2711V11.9491Z" fill="black"/>
<path d="M86.2874 18.1327C86.4001 17.459 86.6817 16.8249 87.1059 16.2894C87.5241 15.801 88.075 15.4442 88.6918 15.2623C89.5131 15.0323 90.3642 14.9268 91.2168 14.9492H94.7735V17.036H92.4549C91.9566 17.0256 91.4587 17.0722 90.971 17.1751C90.6271 17.2484 90.3196 17.4395 90.1015 17.7154C89.8719 18.0469 89.7248 18.4284 89.6726 18.8283C89.5847 19.4503 89.5451 20.0782 89.5543 20.7064V34.2356H86.0764V20.8525C86.0616 19.9413 86.1322 19.0307 86.2874 18.1327Z" fill="black"/>
<path d="M99.74 41.8941L101.855 34.66L95.854 14.9517H99.4339L103.492 30.6372L107.788 14.9517H111.062L103.081 41.9057L99.74 41.8941Z" fill="black"/>
<path d="M116.413 27.9476C116.413 29.3619 116.618 30.4169 117.028 31.1125C117.437 31.8081 118.108 32.1559 119.04 32.1559H124.974V34.2427H117.96C116.119 34.2427 114.805 33.6862 114.018 32.5732C113.231 31.4603 112.839 29.9184 112.84 27.9476V16.3313C112.84 14.2677 113.233 12.674 114.018 11.5503C114.803 10.4265 116.117 9.86385 117.96 9.8623H124.916V11.9491H119.052C118.124 11.9491 117.454 12.2582 117.039 12.8765C116.625 13.4948 116.42 14.648 116.425 16.3359L116.413 27.9476Z" fill="black"/>
<path d="M127.582 18.1331C127.689 17.4554 127.968 16.8165 128.393 16.2782C128.811 15.7887 129.362 15.4317 129.979 15.251C130.8 15.0211 131.65 14.9155 132.502 14.938H136.045V17.0248H133.726C133.229 17.0142 132.732 17.0609 132.245 17.1639C131.901 17.2372 131.593 17.4283 131.375 17.7041C131.142 18.0396 130.995 18.4275 130.949 18.8333C130.859 19.4551 130.818 20.0832 130.828 20.7114V34.2406H127.35V20.8528C127.341 19.941 127.419 19.0303 127.582 18.1331Z" fill="black"/>
<path d="M141.035 41.8941L143.147 34.66L137.146 14.9517H140.726L144.784 30.6372L149.08 14.9517H152.354L144.376 41.9057L141.035 41.8941Z" fill="black"/>
<path d="M162.38 32.1558C162.877 32.1674 163.375 32.1207 163.861 32.0167C164.206 31.9453 164.513 31.7548 164.731 31.4787C164.964 31.1424 165.111 30.7538 165.158 30.3472C165.248 29.7254 165.288 29.0974 165.278 28.4692V20.7134C165.288 20.0851 165.248 19.4571 165.158 18.8353C165.111 18.4294 164.964 18.0415 164.731 17.7061C164.513 17.4302 164.205 17.2392 163.861 17.1659C163.375 17.0628 162.877 17.0162 162.38 17.0267H157.877V41.894H154.399V14.94H163.606C164.458 14.9175 165.309 15.023 166.129 15.253C166.746 15.4337 167.298 15.7907 167.715 16.2801C168.14 16.815 168.422 17.4494 168.534 18.1234C168.697 19.0237 168.775 19.9375 168.765 20.8525V28.3347C168.777 29.2559 168.699 30.176 168.534 31.0823C168.42 31.7508 168.138 32.3795 167.715 32.9093C167.297 33.398 166.746 33.7542 166.129 33.9342C165.309 34.1641 164.458 34.2697 163.606 34.2472H159.753V32.1604L162.38 32.1558Z" fill="black"/>
<path d="M179.635 17.0269H174.896V29.3388C174.896 30.4517 175.05 31.1998 175.36 31.5832C175.669 31.9665 176.265 32.1574 177.149 32.1559H178.684V34.2427H175.754C175.05 34.2629 174.349 34.1447 173.69 33.8949C173.169 33.6918 172.71 33.3561 172.359 32.921C172.02 32.484 171.776 31.9809 171.643 31.4441C171.488 30.838 171.41 30.2148 171.411 29.5892V9.8623H174.889V14.9401H179.635V17.0269Z" fill="black"/>
<path d="M190.853 14.9403C191.704 14.918 192.555 15.0235 193.375 15.2534C193.992 15.4353 194.543 15.7921 194.961 16.2805C195.385 16.816 195.667 17.4501 195.78 18.1238C195.939 19.0246 196.012 19.9383 196 20.8528V28.335C196.014 29.2558 195.94 30.1758 195.78 31.0826C195.665 31.7509 195.384 32.3794 194.961 32.9097C194.543 33.3975 193.992 33.7535 193.375 33.9345C192.555 34.1643 191.704 34.2698 190.853 34.2475H186.283C185.431 34.27 184.58 34.1645 183.76 33.9345C183.143 33.7546 182.592 33.3984 182.174 32.9097C181.75 32.3804 181.468 31.7515 181.356 31.0826C181.19 30.1764 181.112 29.2562 181.124 28.335V20.8528C181.114 19.9379 181.192 19.024 181.356 18.1238C181.469 17.4476 181.755 16.812 182.186 16.2782C182.603 15.7887 183.154 15.4317 183.771 15.251C184.592 15.0211 185.442 14.9155 186.294 14.938L190.853 14.9403ZM184.611 28.4695C184.601 29.0978 184.641 29.7258 184.731 30.3476C184.779 30.7537 184.924 31.1421 185.156 31.4791C185.374 31.7541 185.682 31.9443 186.025 32.017C186.513 32.1209 187.011 32.1676 187.509 32.1561H189.624C190.122 32.1678 190.62 32.1211 191.108 32.017C191.452 31.9456 191.76 31.7551 191.977 31.4791C192.208 31.1416 192.354 30.7535 192.404 30.3476C192.492 29.7256 192.531 29.0977 192.522 28.4695V20.7137C192.531 20.0856 192.492 19.4577 192.404 18.8356C192.355 18.4303 192.208 18.0429 191.977 17.7065C191.759 17.4306 191.452 17.2395 191.108 17.1662C190.62 17.0633 190.122 17.0167 189.624 17.0271H187.518C187.02 17.0168 186.522 17.0635 186.034 17.1662C185.691 17.2406 185.384 17.4315 185.165 17.7065C184.933 18.0402 184.786 18.4253 184.736 18.8287C184.646 19.4505 184.606 20.0785 184.615 20.7068L184.611 28.4695Z" fill="black"/>
<defs>
<clipPath id="clip0">
<rect width="180" height="48.0707" fill="white"/>
</clipPath>
</defs>
</svg>
