<svg width="800" height="486" viewBox="0 0 800 486" fill="none" xmlns="http://www.w3.org/2000/svg">
<circle cx="242.541" cy="242.541" r="222.522" fill="#903F98"/>
<circle cx="557.459" cy="242.541" r="222.522" fill="#00B5C6" fill-opacity="0.7"/>
<circle cx="242.541" cy="242.541" r="242.041" stroke="url(#paint0_linear)"/>
<circle cx="557.459" cy="242.541" r="242.041" transform="rotate(-180 557.459 242.541)" stroke="url(#paint1_linear)"/>
<path d="M469.682 245.236C469.682 307.534 448.508 356.882 400 399.23C351.877 356.497 330.317 307.534 330.317 245.236C330.317 182.938 351.877 126.66 400 85.082C446.968 126.275 469.682 182.938 469.682 245.236Z" fill="#002D76"/>
<path d="M58.7656 255V226.562H66.793C69.2669 226.562 71.4544 227.109 73.3555 228.203C75.2565 229.297 76.7214 230.853 77.75 232.871C78.7917 234.889 79.319 237.207 79.332 239.824V241.641C79.332 244.323 78.8112 246.673 77.7695 248.691C76.7409 250.71 75.263 252.259 73.3359 253.34C71.4219 254.421 69.1888 254.974 66.6367 255H58.7656ZM62.5156 229.648V251.934H66.4609C69.3516 251.934 71.5977 251.035 73.1992 249.238C74.8138 247.441 75.6211 244.883 75.6211 241.562V239.902C75.6211 236.673 74.8594 234.167 73.3359 232.383C71.8255 230.586 69.6771 229.674 66.8906 229.648H62.5156ZM93.2188 255.391C90.3542 255.391 88.0234 254.453 86.2266 252.578C84.4297 250.69 83.5312 248.171 83.5312 245.02V244.355C83.5312 242.259 83.9284 240.391 84.7227 238.75C85.5299 237.096 86.6497 235.807 88.082 234.883C89.5273 233.945 91.0898 233.477 92.7695 233.477C95.5169 233.477 97.6523 234.382 99.1758 236.191C100.699 238.001 101.461 240.592 101.461 243.965V245.469H87.1445C87.1966 247.552 87.8021 249.238 88.9609 250.527C90.1328 251.803 91.6172 252.441 93.4141 252.441C94.6901 252.441 95.7708 252.181 96.6562 251.66C97.5417 251.139 98.3164 250.449 98.9805 249.59L101.188 251.309C99.4167 254.03 96.7604 255.391 93.2188 255.391ZM92.7695 236.445C91.3112 236.445 90.0872 236.979 89.0977 238.047C88.1081 239.102 87.4961 240.586 87.2617 242.5H97.8477V242.227C97.7435 240.391 97.2487 238.971 96.3633 237.969C95.4779 236.953 94.2799 236.445 92.7695 236.445ZM114.137 252.441C115.426 252.441 116.552 252.051 117.516 251.27C118.479 250.488 119.013 249.512 119.117 248.34H122.535C122.47 249.551 122.053 250.703 121.285 251.797C120.517 252.891 119.488 253.763 118.199 254.414C116.923 255.065 115.569 255.391 114.137 255.391C111.259 255.391 108.967 254.434 107.262 252.52C105.569 250.592 104.723 247.962 104.723 244.629V244.023C104.723 241.966 105.1 240.137 105.855 238.535C106.611 236.934 107.691 235.69 109.098 234.805C110.517 233.919 112.19 233.477 114.117 233.477C116.487 233.477 118.453 234.186 120.016 235.605C121.591 237.025 122.431 238.867 122.535 241.133H119.117C119.013 239.766 118.492 238.646 117.555 237.773C116.63 236.888 115.484 236.445 114.117 236.445C112.281 236.445 110.855 237.109 109.84 238.438C108.837 239.753 108.336 241.66 108.336 244.16V244.844C108.336 247.279 108.837 249.154 109.84 250.469C110.842 251.784 112.275 252.441 114.137 252.441ZM135.367 255.391C132.503 255.391 130.172 254.453 128.375 252.578C126.578 250.69 125.68 248.171 125.68 245.02V244.355C125.68 242.259 126.077 240.391 126.871 238.75C127.678 237.096 128.798 235.807 130.23 234.883C131.676 233.945 133.238 233.477 134.918 233.477C137.665 233.477 139.801 234.382 141.324 236.191C142.848 238.001 143.609 240.592 143.609 243.965V245.469H129.293C129.345 247.552 129.951 249.238 131.109 250.527C132.281 251.803 133.766 252.441 135.562 252.441C136.839 252.441 137.919 252.181 138.805 251.66C139.69 251.139 140.465 250.449 141.129 249.59L143.336 251.309C141.565 254.03 138.909 255.391 135.367 255.391ZM134.918 236.445C133.46 236.445 132.236 236.979 131.246 238.047C130.257 239.102 129.645 240.586 129.41 242.5H139.996V242.227C139.892 240.391 139.397 238.971 138.512 237.969C137.626 236.953 136.428 236.445 134.918 236.445ZM151.227 233.867L151.344 236.523C152.958 234.492 155.068 233.477 157.672 233.477C162.138 233.477 164.391 235.996 164.43 241.035V255H160.816V241.016C160.803 239.492 160.452 238.366 159.762 237.637C159.085 236.908 158.023 236.543 156.578 236.543C155.406 236.543 154.378 236.855 153.492 237.48C152.607 238.105 151.917 238.926 151.422 239.941V255H147.809V233.867H151.227ZM174.781 228.75V233.867H178.727V236.66H174.781V249.766C174.781 250.612 174.957 251.25 175.309 251.68C175.66 252.096 176.259 252.305 177.105 252.305C177.522 252.305 178.095 252.227 178.824 252.07V255C177.874 255.26 176.949 255.391 176.051 255.391C174.436 255.391 173.219 254.902 172.398 253.926C171.578 252.949 171.168 251.562 171.168 249.766V236.66H167.32V233.867H171.168V228.75H174.781ZM193.18 237.109C192.633 237.018 192.04 236.973 191.402 236.973C189.033 236.973 187.424 237.982 186.578 240V255H182.965V233.867H186.48L186.539 236.309C187.724 234.421 189.404 233.477 191.578 233.477C192.281 233.477 192.815 233.568 193.18 233.75V237.109ZM208.785 255C208.577 254.583 208.408 253.841 208.277 252.773C206.598 254.518 204.592 255.391 202.262 255.391C200.178 255.391 198.466 254.805 197.125 253.633C195.797 252.448 195.133 250.951 195.133 249.141C195.133 246.94 195.966 245.234 197.633 244.023C199.312 242.799 201.669 242.188 204.703 242.188H208.219V240.527C208.219 239.264 207.841 238.262 207.086 237.52C206.331 236.764 205.217 236.387 203.746 236.387C202.457 236.387 201.376 236.712 200.504 237.363C199.632 238.014 199.195 238.802 199.195 239.727H195.562C195.562 238.672 195.934 237.656 196.676 236.68C197.431 235.69 198.447 234.909 199.723 234.336C201.012 233.763 202.424 233.477 203.961 233.477C206.396 233.477 208.303 234.089 209.684 235.312C211.064 236.523 211.78 238.197 211.832 240.332V250.059C211.832 251.999 212.079 253.542 212.574 254.688V255H208.785ZM202.789 252.246C203.922 252.246 204.996 251.953 206.012 251.367C207.027 250.781 207.763 250.02 208.219 249.082V244.746H205.387C200.96 244.746 198.746 246.042 198.746 248.633C198.746 249.766 199.124 250.651 199.879 251.289C200.634 251.927 201.604 252.246 202.789 252.246ZM221.422 255H217.809V225H221.422V255ZM231.148 255H227.535V233.867H231.148V255ZM227.242 228.262C227.242 227.676 227.418 227.181 227.77 226.777C228.134 226.374 228.668 226.172 229.371 226.172C230.074 226.172 230.608 226.374 230.973 226.777C231.337 227.181 231.52 227.676 231.52 228.262C231.52 228.848 231.337 229.336 230.973 229.727C230.608 230.117 230.074 230.312 229.371 230.312C228.668 230.312 228.134 230.117 227.77 229.727C227.418 229.336 227.242 228.848 227.242 228.262ZM240.348 252.051H252.711V255H235.934V252.344L247.594 236.855H236.109V233.867H252.125V236.426L240.348 252.051ZM265.25 255.391C262.385 255.391 260.055 254.453 258.258 252.578C256.461 250.69 255.562 248.171 255.562 245.02V244.355C255.562 242.259 255.96 240.391 256.754 238.75C257.561 237.096 258.681 235.807 260.113 234.883C261.559 233.945 263.121 233.477 264.801 233.477C267.548 233.477 269.684 234.382 271.207 236.191C272.73 238.001 273.492 240.592 273.492 243.965V245.469H259.176C259.228 247.552 259.833 249.238 260.992 250.527C262.164 251.803 263.648 252.441 265.445 252.441C266.721 252.441 267.802 252.181 268.688 251.66C269.573 251.139 270.348 250.449 271.012 249.59L273.219 251.309C271.448 254.03 268.792 255.391 265.25 255.391ZM264.801 236.445C263.342 236.445 262.118 236.979 261.129 238.047C260.139 239.102 259.527 240.586 259.293 242.5H269.879V242.227C269.775 240.391 269.28 238.971 268.395 237.969C267.509 236.953 266.311 236.445 264.801 236.445ZM276.812 244.258C276.812 241.016 277.581 238.411 279.117 236.445C280.654 234.466 282.665 233.477 285.152 233.477C287.626 233.477 289.586 234.323 291.031 236.016V225H294.645V255H291.324L291.148 252.734C289.703 254.505 287.691 255.391 285.113 255.391C282.665 255.391 280.667 254.388 279.117 252.383C277.581 250.378 276.812 247.76 276.812 244.531V244.258ZM280.426 244.668C280.426 247.064 280.921 248.939 281.91 250.293C282.9 251.647 284.267 252.324 286.012 252.324C288.303 252.324 289.977 251.296 291.031 249.238V239.531C289.951 237.539 288.29 236.543 286.051 236.543C284.28 236.543 282.9 237.227 281.91 238.594C280.921 239.961 280.426 241.986 280.426 244.668ZM96.9883 276.648H87.8477V302H84.1172V276.648H74.9961V273.562H96.9883V276.648ZM107.457 302.391C104.592 302.391 102.262 301.453 100.465 299.578C98.668 297.69 97.7695 295.171 97.7695 292.02V291.355C97.7695 289.259 98.1667 287.391 98.9609 285.75C99.7682 284.096 100.888 282.807 102.32 281.883C103.766 280.945 105.328 280.477 107.008 280.477C109.755 280.477 111.891 281.382 113.414 283.191C114.938 285.001 115.699 287.592 115.699 290.965V292.469H101.383C101.435 294.552 102.04 296.238 103.199 297.527C104.371 298.803 105.855 299.441 107.652 299.441C108.928 299.441 110.009 299.181 110.895 298.66C111.78 298.139 112.555 297.449 113.219 296.59L115.426 298.309C113.655 301.03 110.999 302.391 107.457 302.391ZM107.008 283.445C105.549 283.445 104.326 283.979 103.336 285.047C102.346 286.102 101.734 287.586 101.5 289.5H112.086V289.227C111.982 287.391 111.487 285.971 110.602 284.969C109.716 283.953 108.518 283.445 107.008 283.445ZM128.375 299.441C129.664 299.441 130.79 299.051 131.754 298.27C132.717 297.488 133.251 296.512 133.355 295.34H136.773C136.708 296.551 136.292 297.703 135.523 298.797C134.755 299.891 133.727 300.763 132.438 301.414C131.161 302.065 129.807 302.391 128.375 302.391C125.497 302.391 123.206 301.434 121.5 299.52C119.807 297.592 118.961 294.962 118.961 291.629V291.023C118.961 288.966 119.339 287.137 120.094 285.535C120.849 283.934 121.93 282.69 123.336 281.805C124.755 280.919 126.428 280.477 128.355 280.477C130.725 280.477 132.691 281.186 134.254 282.605C135.829 284.025 136.669 285.867 136.773 288.133H133.355C133.251 286.766 132.73 285.646 131.793 284.773C130.868 283.888 129.723 283.445 128.355 283.445C126.52 283.445 125.094 284.109 124.078 285.438C123.076 286.753 122.574 288.66 122.574 291.16V291.844C122.574 294.279 123.076 296.154 124.078 297.469C125.081 298.784 126.513 299.441 128.375 299.441ZM144.449 283.426C146.051 281.46 148.134 280.477 150.699 280.477C155.165 280.477 157.418 282.996 157.457 288.035V302H153.844V288.016C153.831 286.492 153.479 285.366 152.789 284.637C152.112 283.908 151.051 283.543 149.605 283.543C148.434 283.543 147.405 283.855 146.52 284.48C145.634 285.105 144.944 285.926 144.449 286.941V302H140.836V272H144.449V283.426ZM166.285 280.867L166.402 283.523C168.017 281.492 170.126 280.477 172.73 280.477C177.197 280.477 179.449 282.996 179.488 288.035V302H175.875V288.016C175.862 286.492 175.51 285.366 174.82 284.637C174.143 283.908 173.082 283.543 171.637 283.543C170.465 283.543 169.436 283.855 168.551 284.48C167.665 285.105 166.975 285.926 166.48 286.941V302H162.867V280.867H166.285ZM183.98 291.238C183.98 289.168 184.384 287.306 185.191 285.652C186.012 283.999 187.145 282.723 188.59 281.824C190.048 280.926 191.708 280.477 193.57 280.477C196.448 280.477 198.772 281.473 200.543 283.465C202.327 285.457 203.219 288.107 203.219 291.414V291.668C203.219 293.725 202.822 295.574 202.027 297.215C201.246 298.842 200.12 300.112 198.648 301.023C197.19 301.935 195.51 302.391 193.609 302.391C190.745 302.391 188.421 301.395 186.637 299.402C184.866 297.41 183.98 294.773 183.98 291.492V291.238ZM187.613 291.668C187.613 294.012 188.154 295.893 189.234 297.312C190.328 298.732 191.786 299.441 193.609 299.441C195.445 299.441 196.904 298.725 197.984 297.293C199.065 295.848 199.605 293.829 199.605 291.238C199.605 288.921 199.052 287.046 197.945 285.613C196.852 284.168 195.393 283.445 193.57 283.445C191.786 283.445 190.348 284.155 189.254 285.574C188.16 286.993 187.613 289.025 187.613 291.668ZM211.676 302H208.062V272H211.676V302ZM216.52 291.238C216.52 289.168 216.923 287.306 217.73 285.652C218.551 283.999 219.684 282.723 221.129 281.824C222.587 280.926 224.247 280.477 226.109 280.477C228.987 280.477 231.311 281.473 233.082 283.465C234.866 285.457 235.758 288.107 235.758 291.414V291.668C235.758 293.725 235.361 295.574 234.566 297.215C233.785 298.842 232.659 300.112 231.188 301.023C229.729 301.935 228.049 302.391 226.148 302.391C223.284 302.391 220.96 301.395 219.176 299.402C217.405 297.41 216.52 294.773 216.52 291.492V291.238ZM220.152 291.668C220.152 294.012 220.693 295.893 221.773 297.312C222.867 298.732 224.326 299.441 226.148 299.441C227.984 299.441 229.443 298.725 230.523 297.293C231.604 295.848 232.145 293.829 232.145 291.238C232.145 288.921 231.591 287.046 230.484 285.613C229.391 284.168 227.932 283.445 226.109 283.445C224.326 283.445 222.887 284.155 221.793 285.574C220.699 286.993 220.152 289.025 220.152 291.668ZM239.43 291.258C239.43 287.964 240.191 285.346 241.715 283.406C243.238 281.453 245.257 280.477 247.77 280.477C250.348 280.477 252.359 281.388 253.805 283.211L253.98 280.867H257.281V301.492C257.281 304.227 256.467 306.382 254.84 307.957C253.225 309.533 251.051 310.32 248.316 310.32C246.793 310.32 245.302 309.995 243.844 309.344C242.385 308.693 241.272 307.801 240.504 306.668L242.379 304.5C243.928 306.414 245.823 307.371 248.062 307.371C249.82 307.371 251.188 306.876 252.164 305.887C253.154 304.897 253.648 303.504 253.648 301.707V299.891C252.203 301.557 250.23 302.391 247.73 302.391C245.257 302.391 243.251 301.395 241.715 299.402C240.191 297.41 239.43 294.695 239.43 291.258ZM243.062 291.668C243.062 294.051 243.551 295.926 244.527 297.293C245.504 298.647 246.871 299.324 248.629 299.324C250.908 299.324 252.581 298.289 253.648 296.219V286.57C252.542 284.552 250.882 283.543 248.668 283.543C246.91 283.543 245.536 284.227 244.547 285.594C243.557 286.961 243.062 288.986 243.062 291.668ZM269.664 296.707L274.586 280.867H278.453L269.957 305.262C268.642 308.777 266.552 310.535 263.688 310.535L263.004 310.477L261.656 310.223V307.293L262.633 307.371C263.857 307.371 264.807 307.124 265.484 306.629C266.174 306.134 266.741 305.229 267.184 303.914L267.984 301.766L260.445 280.867H264.391L269.664 296.707Z" fill="black"/>
<path d="M557.406 256.035L557.953 259.785L558.754 256.406L564.379 236.562H567.543L573.031 256.406L573.812 259.844L574.418 256.016L578.832 236.562H582.602L575.707 265H572.289L566.43 244.277L565.98 242.109L565.531 244.277L559.457 265H556.039L549.164 236.562H552.914L557.406 256.035ZM584.633 254.238C584.633 252.168 585.036 250.306 585.844 248.652C586.664 246.999 587.797 245.723 589.242 244.824C590.701 243.926 592.361 243.477 594.223 243.477C597.1 243.477 599.424 244.473 601.195 246.465C602.979 248.457 603.871 251.107 603.871 254.414V254.668C603.871 256.725 603.474 258.574 602.68 260.215C601.898 261.842 600.772 263.112 599.301 264.023C597.842 264.935 596.163 265.391 594.262 265.391C591.397 265.391 589.073 264.395 587.289 262.402C585.518 260.41 584.633 257.773 584.633 254.492V254.238ZM588.266 254.668C588.266 257.012 588.806 258.893 589.887 260.312C590.98 261.732 592.439 262.441 594.262 262.441C596.098 262.441 597.556 261.725 598.637 260.293C599.717 258.848 600.258 256.829 600.258 254.238C600.258 251.921 599.704 250.046 598.598 248.613C597.504 247.168 596.046 246.445 594.223 246.445C592.439 246.445 591 247.155 589.906 248.574C588.812 249.993 588.266 252.025 588.266 254.668ZM611.801 243.867L611.898 246.211C613.448 244.388 615.538 243.477 618.168 243.477C621.124 243.477 623.135 244.609 624.203 246.875C624.906 245.859 625.818 245.039 626.938 244.414C628.07 243.789 629.405 243.477 630.941 243.477C635.577 243.477 637.934 245.931 638.012 250.84V265H634.398V251.055C634.398 249.544 634.053 248.418 633.363 247.676C632.673 246.921 631.514 246.543 629.887 246.543C628.546 246.543 627.432 246.947 626.547 247.754C625.661 248.548 625.147 249.622 625.004 250.977V265H621.371V251.152C621.371 248.079 619.867 246.543 616.859 246.543C614.49 246.543 612.868 247.552 611.996 249.57V265H608.383V243.867H611.801ZM652.25 265.391C649.385 265.391 647.055 264.453 645.258 262.578C643.461 260.69 642.562 258.171 642.562 255.02V254.355C642.562 252.259 642.96 250.391 643.754 248.75C644.561 247.096 645.681 245.807 647.113 244.883C648.559 243.945 650.121 243.477 651.801 243.477C654.548 243.477 656.684 244.382 658.207 246.191C659.73 248.001 660.492 250.592 660.492 253.965V255.469H646.176C646.228 257.552 646.833 259.238 647.992 260.527C649.164 261.803 650.648 262.441 652.445 262.441C653.721 262.441 654.802 262.181 655.688 261.66C656.573 261.139 657.348 260.449 658.012 259.59L660.219 261.309C658.448 264.03 655.792 265.391 652.25 265.391ZM651.801 246.445C650.342 246.445 649.118 246.979 648.129 248.047C647.139 249.102 646.527 250.586 646.293 252.5H656.879V252.227C656.775 250.391 656.28 248.971 655.395 247.969C654.509 246.953 653.311 246.445 651.801 246.445ZM668.109 243.867L668.227 246.523C669.841 244.492 671.951 243.477 674.555 243.477C679.021 243.477 681.273 245.996 681.312 251.035V265H677.699V251.016C677.686 249.492 677.335 248.366 676.645 247.637C675.967 246.908 674.906 246.543 673.461 246.543C672.289 246.543 671.26 246.855 670.375 247.48C669.49 248.105 668.799 248.926 668.305 249.941V265H664.691V243.867H668.109Z" fill="black"/>
<path d="M347.365 247.202V218.765H356.662C359.748 218.765 362.066 219.403 363.615 220.679C365.178 221.955 365.959 223.843 365.959 226.343C365.959 227.671 365.582 228.849 364.826 229.878C364.071 230.894 363.042 231.681 361.74 232.241C363.277 232.671 364.488 233.491 365.373 234.702C366.272 235.9 366.721 237.332 366.721 238.999C366.721 241.551 365.894 243.556 364.24 245.015C362.587 246.473 360.25 247.202 357.229 247.202H347.365ZM351.115 233.901V244.136H357.307C359.052 244.136 360.425 243.687 361.428 242.788C362.444 241.877 362.951 240.627 362.951 239.038C362.951 235.614 361.089 233.901 357.365 233.901H351.115ZM351.115 230.894H356.779C358.42 230.894 359.729 230.483 360.705 229.663C361.695 228.843 362.19 227.729 362.19 226.323C362.19 224.761 361.734 223.628 360.822 222.925C359.911 222.209 358.524 221.851 356.662 221.851H351.115V230.894ZM381.29 247.593C378.426 247.593 376.095 246.655 374.298 244.78C372.501 242.892 371.603 240.373 371.603 237.222V236.558C371.603 234.461 372 232.593 372.794 230.952C373.602 229.299 374.721 228.009 376.154 227.085C377.599 226.147 379.161 225.679 380.841 225.679C383.589 225.679 385.724 226.584 387.247 228.394C388.771 230.203 389.533 232.795 389.533 236.167V237.671H375.216C375.268 239.754 375.874 241.44 377.033 242.729C378.204 244.006 379.689 244.644 381.486 244.644C382.762 244.644 383.842 244.383 384.728 243.862C385.613 243.341 386.388 242.651 387.052 241.792L389.259 243.511C387.488 246.232 384.832 247.593 381.29 247.593ZM380.841 228.647C379.383 228.647 378.159 229.181 377.169 230.249C376.18 231.304 375.568 232.788 375.333 234.702H385.919V234.429C385.815 232.593 385.32 231.174 384.435 230.171C383.55 229.155 382.352 228.647 380.841 228.647ZM399.434 220.952V226.069H403.379V228.862H399.434V241.968C399.434 242.814 399.61 243.452 399.961 243.882C400.313 244.299 400.912 244.507 401.758 244.507C402.175 244.507 402.748 244.429 403.477 244.272V247.202C402.527 247.463 401.602 247.593 400.704 247.593C399.089 247.593 397.872 247.104 397.051 246.128C396.231 245.151 395.821 243.765 395.821 241.968V228.862H391.973V226.069H395.821V220.952H399.434ZM413.32 220.952V226.069H417.265V228.862H413.32V241.968C413.32 242.814 413.496 243.452 413.847 243.882C414.199 244.299 414.798 244.507 415.644 244.507C416.061 244.507 416.634 244.429 417.363 244.272V247.202C416.413 247.463 415.488 247.593 414.59 247.593C412.975 247.593 411.758 247.104 410.937 246.128C410.117 245.151 409.707 243.765 409.707 241.968V228.862H405.859V226.069H409.707V220.952H413.32ZM431.073 247.593C428.209 247.593 425.878 246.655 424.081 244.78C422.284 242.892 421.386 240.373 421.386 237.222V236.558C421.386 234.461 421.783 232.593 422.577 230.952C423.384 229.299 424.504 228.009 425.936 227.085C427.382 226.147 428.944 225.679 430.624 225.679C433.371 225.679 435.507 226.584 437.03 228.394C438.554 230.203 439.315 232.795 439.315 236.167V237.671H424.999C425.051 239.754 425.657 241.44 426.815 242.729C427.987 244.006 429.472 244.644 431.269 244.644C432.545 244.644 433.625 244.383 434.511 243.862C435.396 243.341 436.171 242.651 436.835 241.792L439.042 243.511C437.271 246.232 434.615 247.593 431.073 247.593ZM430.624 228.647C429.166 228.647 427.942 229.181 426.952 230.249C425.963 231.304 425.351 232.788 425.116 234.702H435.702V234.429C435.598 232.593 435.103 231.174 434.218 230.171C433.332 229.155 432.134 228.647 430.624 228.647ZM454.529 229.312C453.983 229.22 453.39 229.175 452.752 229.175C450.382 229.175 448.774 230.184 447.928 232.202V247.202H444.315V226.069H447.83L447.889 228.511C449.074 226.623 450.753 225.679 452.928 225.679C453.631 225.679 454.165 225.77 454.529 225.952V229.312ZM356.056 285.237L356.603 288.987L357.404 285.608L363.029 265.765H366.193L371.681 285.608L372.462 289.046L373.068 285.218L377.482 265.765H381.251L374.357 294.202H370.939L365.079 273.479L364.63 271.312L364.181 273.479L358.107 294.202H354.689L347.814 265.765H351.564L356.056 285.237ZM384.083 283.44C384.083 281.37 384.486 279.508 385.294 277.854C386.114 276.201 387.247 274.925 388.692 274.026C390.15 273.128 391.81 272.679 393.672 272.679C396.55 272.679 398.874 273.675 400.645 275.667C402.429 277.659 403.321 280.309 403.321 283.616V283.87C403.321 285.927 402.924 287.776 402.129 289.417C401.348 291.045 400.222 292.314 398.751 293.226C397.292 294.137 395.613 294.593 393.711 294.593C390.847 294.593 388.523 293.597 386.739 291.604C384.968 289.612 384.083 286.976 384.083 283.694V283.44ZM387.715 283.87C387.715 286.214 388.256 288.095 389.336 289.515C390.43 290.934 391.889 291.644 393.711 291.644C395.547 291.644 397.006 290.927 398.086 289.495C399.167 288.05 399.708 286.032 399.708 283.44C399.708 281.123 399.154 279.248 398.047 277.815C396.954 276.37 395.495 275.647 393.672 275.647C391.889 275.647 390.45 276.357 389.356 277.776C388.262 279.196 387.715 281.227 387.715 283.87ZM418.867 276.312C418.32 276.22 417.728 276.175 417.09 276.175C414.72 276.175 413.112 277.184 412.265 279.202V294.202H408.652V273.069H412.168L412.226 275.511C413.411 273.623 415.091 272.679 417.265 272.679C417.969 272.679 418.502 272.77 418.867 272.952V276.312ZM426.933 294.202H423.319V264.202H426.933V294.202ZM432.654 283.46C432.654 280.218 433.423 277.614 434.959 275.647C436.496 273.668 438.507 272.679 440.994 272.679C443.468 272.679 445.428 273.525 446.873 275.218V264.202H450.486V294.202H447.166L446.99 291.937C445.545 293.707 443.533 294.593 440.955 294.593C438.507 294.593 436.509 293.59 434.959 291.585C433.423 289.58 432.654 286.963 432.654 283.733V283.46ZM436.268 283.87C436.268 286.266 436.763 288.141 437.752 289.495C438.742 290.849 440.109 291.526 441.854 291.526C444.145 291.526 445.819 290.498 446.873 288.44V278.733C445.792 276.741 444.132 275.745 441.893 275.745C440.122 275.745 438.742 276.429 437.752 277.796C436.763 279.163 436.268 281.188 436.268 283.87Z" fill="white"/>
<defs>
<linearGradient id="paint0_linear" x1="471.607" y1="325.313" x2="3.23885e-05" y2="252.166" gradientUnits="userSpaceOnUse">
<stop offset="0.0553928" stop-color="white"/>
<stop offset="0.50579" stop-color="white"/>
<stop offset="1" stop-color="white" stop-opacity="0"/>
</linearGradient>
<linearGradient id="paint1_linear" x1="786.526" y1="325.313" x2="314.918" y2="252.166" gradientUnits="userSpaceOnUse">
<stop offset="0.0553928" stop-color="white"/>
<stop offset="0.50579" stop-color="white"/>
<stop offset="1" stop-color="white" stop-opacity="0"/>
</linearGradient>
</defs>
</svg>
