<svg width="1162" height="376" viewBox="0 0 1162 376" fill="none" xmlns="http://www.w3.org/2000/svg">
<path d="M27 324L29.7907 337.837C30.7579 342.632 34.5392 346.36 39.3478 347.26L54 350L39.3478 352.74C34.5392 353.64 30.7579 357.368 29.7907 362.163L27 376L24.2093 362.163C23.2421 357.368 19.4608 353.64 14.6522 352.74L0 350L14.6522 347.26C19.4608 346.36 23.2421 342.632 24.2093 337.837L27 324Z" fill="white"/>
<path d="M27.5 257.5C27.5 124.952 134.952 17.5 267.5 17.5H1244.5V172.5C1244.5 270.254 1165.25 349.5 1067.5 349.5H27.5V257.5Z" stroke="white"/>
<path d="M81 240.5C81 107.676 188.676 0 321.5 0H1207V130.5C1207 228.531 1127.53 308 1029.5 308H81V240.5Z" fill="#1B1C1C"/>
</svg>
