<svg width="965" height="247" viewBox="0 0 965 247" fill="none" xmlns="http://www.w3.org/2000/svg">
<g clip-path="url(#clip0)">
<path d="M194.33 136.18L194.59 136.05H194.48L194.21 136.18H194.33Z" fill="#333333"/>
<path d="M237.92 163C236.74 161.633 235.54 160.33 234.32 159.09C218.7 143.23 196.22 136.9 194.16 136.24C180.26 143.24 163.29 148.47 142.71 151.91L143.43 153.72C144.24 154.61 181.67 194.21 238.07 163.18L237.92 163Z" fill="#333333"/>
<path d="M193.77 136.31C245.25 109.99 255.3 66.31 256.29 61.44C256.1 61.12 255.91 60.81 255.73 60.49C245.576 53.1517 233.795 48.3818 221.396 46.5881C208.997 44.7944 196.348 46.0302 184.53 50.19C169.822 55.3433 157.21 65.1796 148.63 78.19C136.07 97.33 133.1 122.02 139.3 144.07C139.85 146.16 140.52 148.2 141.24 150.22C141.6 150.91 141.96 151.6 142.34 152.27C163 148.82 180 143.5 193.88 136.4C193.39 136.25 193.3 136.21 193.77 136.31Z" fill="white"/>
<path d="M78.62 161.33C68.49 144.067 62.8161 124.553 62.11 104.55C61.78 93.66 62.28 81.79 60.11 71.87C59.3687 68.3937 57.9267 65.1049 55.8721 62.2045C53.8176 59.304 51.1934 56.8526 48.16 55C44.16 52.41 41.32 51.58 36.96 49.38L36.37 49.06C25.11 50.38 12.63 47.49 0.0599636 36C-0.300036 45.56 0.849964 55.8 8.46996 62.87C10.18 64.45 12.2 66.47 14.25 68.34C17.74 71.53 27.46 75.17 26.35 92.12C25.73 101.6 24.55 117.12 25.47 127.99C27.8362 156.439 39.2341 183.387 58 204.9C99.37 251.99 177 264.34 232.84 213.14C157.17 234.47 105.35 206.88 78.62 161.33Z" fill="#FDD106"/>
<path d="M184.86 197.76C130.17 181.81 70.32 92.38 126.43 35.49C165.31 -3.91999 209.3 15.82 215 18.58C198.015 7.97364 178.687 1.69772 158.712 0.302896C138.736 -1.09192 118.724 2.43699 100.43 10.58L99.32 11.08C91.57 14.49 47.58 38.67 13.25 7.42C13.73 21.9 18.82 39 31.27 46.34C33.13 47.44 35.02 48.45 36.91 49.41C41.27 51.61 44.07 52.41 48.11 55.03C51.1538 56.8787 53.7882 59.3293 55.8516 62.2319C57.915 65.1344 59.3641 68.4277 60.11 71.91C62.26 81.82 61.76 93.7 62.11 104.59C62.8162 124.593 68.4901 144.107 78.62 161.37C105.36 206.92 157.18 234.51 232.85 213.16" fill="#1AC3F3"/>
<path d="M149 78.45C157.515 65.5345 170.037 55.774 184.64 50.67C196.561 46.492 209.324 45.2964 221.814 47.1878C234.304 49.0791 246.14 53.9998 256.29 61.52C248.906 48.6908 239.276 37.293 227.86 27.87C227.58 27.65 227.32 27.42 227.05 27.19C225.6 26.02 224.11 24.9 222.61 23.79C221.91 23.28 221.22 22.79 220.51 22.26C219.32 21.41 218.1 20.6 216.87 19.8C216.13 19.32 215.38 18.8 214.62 18.37C209 15.61 165 -4.13 126.09 35.28C69.9999 92.17 129.83 181.6 184.52 197.55C154.15 181.16 144.8 157.09 142.75 152.76C141.564 149.825 140.562 146.819 139.75 143.76C133.58 121.88 136.53 97.41 149 78.45Z" fill="#8CC760"/>
<path d="M217.79 84.47C216.448 84.4721 215.14 84.0456 214.058 83.2526C212.975 82.4596 212.174 81.3415 211.771 80.0614C211.368 78.7812 211.384 77.4058 211.818 76.1357C212.251 74.8655 213.079 73.7669 214.18 73C210.09 67.31 203.47 62.93 193.96 62.93C201.18 78.06 201.52 100.72 193.96 115.21C209.49 115.21 219.33 101.58 219.33 88.47C219.321 87.0888 219.198 85.7107 218.96 84.35C218.574 84.4256 218.183 84.4657 217.79 84.47V84.47Z" fill="#333333"/>
<path d="M272.56 121.52C272.67 142.309 267.473 162.781 257.46 181C255.39 184.71 250.68 183.57 249.19 180.47C246.133 174.139 242.26 168.235 237.67 162.91C236.49 161.55 235.29 160.24 234.07 159.01C216.6 141.26 190.54 135.45 194.07 136.15C248.07 108.59 256.18 61.81 256.23 61.51C266.792 79.7559 272.42 100.438 272.56 121.52Z" fill="#555555"/>
<path d="M322.94 184.57H308.36V51.46H329.75C336.225 51.4287 342.512 53.6328 347.55 57.7C353.138 62.0857 357.346 67.9874 359.67 74.7C363.957 86.0333 366.103 100.423 366.11 117.87C366.11 135.41 363.963 149.863 359.67 161.23C356.89 168.563 352.913 174.23 347.74 178.23C342.662 182.226 336.402 184.424 329.94 184.48L322.94 184.57ZM329.56 174.91C334.077 174.92 338.446 173.305 341.87 170.36C345.817 167.109 348.824 162.863 350.58 158.06C354.493 147.58 356.45 134.2 356.45 117.92C356.45 101.76 354.493 88.4267 350.58 77.92C348.811 73.1734 345.882 68.945 342.06 65.62C338.553 62.6896 334.13 61.0798 329.56 61.07H318V174.87L329.56 174.91Z" fill="#F9F9F9"/>
<path d="M391.1 182.2C387.118 179.923 383.817 176.622 381.54 172.64C379.194 168.617 377.971 164.037 378 159.38V108.83C377.962 104.176 379.174 99.5961 381.51 95.57C383.794 91.5803 387.106 88.2756 391.1 86C395.124 83.6694 399.7 82.4607 404.35 82.5C408.941 82.4959 413.452 83.7018 417.428 85.9964C421.405 88.291 424.706 91.5931 427 95.57C429.332 99.5971 430.541 104.176 430.5 108.83V138.55L387.71 138.36V159.36C387.681 161.542 388.095 163.706 388.925 165.724C389.755 167.741 390.985 169.57 392.54 171.1C394.062 172.69 395.898 173.946 397.931 174.789C399.964 175.633 402.15 176.045 404.35 176C407.841 176.033 411.308 175.427 414.58 174.21C418.037 172.824 421.237 170.871 424.05 168.43L430.29 175.81C426.648 178.988 422.488 181.518 417.99 183.29C413.626 184.905 409.003 185.708 404.35 185.66C399.704 185.711 395.128 184.517 391.1 182.2ZM420.83 108.83C420.859 106.649 420.445 104.484 419.615 102.466C418.785 100.449 417.555 98.6198 416 97.09C414.504 95.5085 412.697 94.2546 410.691 93.4077C408.686 92.5608 406.527 92.1394 404.35 92.17C402.145 92.1265 399.955 92.5413 397.919 93.3883C395.882 94.2352 394.044 95.4957 392.52 97.09C390.965 98.6198 389.735 100.449 388.905 102.466C388.075 104.484 387.661 106.649 387.69 108.83V129.66L420.83 129.84V108.83Z" fill="#F9F9F9"/>
<path d="M458.69 182C454.718 179.707 451.42 176.408 449.127 172.435C446.834 168.463 445.628 163.957 445.63 159.37V108.64C445.627 104.052 446.832 99.5435 449.125 95.569C451.417 91.5946 454.716 88.2942 458.69 86C462.716 83.6726 467.29 82.4642 471.94 82.5C478.692 82.4831 485.338 84.1757 491.26 87.42V99.36L489.74 98C484.632 94.1044 478.363 92.0372 471.94 92.13C469.74 92.0909 467.555 92.5028 465.521 93.3404C463.486 94.178 461.645 95.4234 460.11 97C458.551 98.5087 457.319 100.321 456.488 102.325C455.657 104.328 455.246 106.481 455.28 108.65V159.39C455.252 161.552 455.665 163.697 456.496 165.694C457.327 167.69 458.556 169.496 460.11 171C461.648 172.569 463.491 173.807 465.525 174.636C467.56 175.465 469.743 175.868 471.94 175.82C478.386 175.919 484.67 173.801 489.74 169.82L491.26 168.68V180.4C485.389 183.792 478.72 185.556 471.94 185.51C467.289 185.546 462.713 184.334 458.69 182V182Z" fill="#F9F9F9"/>
<path d="M518 182.2C514.018 179.923 510.717 176.622 508.44 172.64C506.108 168.613 504.899 164.034 504.94 159.38V108.83C504.899 104.176 506.108 99.5971 508.44 95.57C510.716 91.5842 514.017 88.2799 518 86C522.029 83.6713 526.607 82.4628 531.26 82.5C535.845 82.5001 540.349 83.7071 544.32 85.9996C548.29 88.2921 551.588 91.5893 553.88 95.56C556.216 99.5861 557.428 104.166 557.39 108.82V138.54L514.59 138.35V159.35C514.561 161.532 514.975 163.696 515.805 165.714C516.635 167.731 517.865 169.56 519.42 171.09C520.94 172.678 522.772 173.934 524.801 174.779C526.83 175.624 529.012 176.04 531.21 176C534.697 176.033 538.161 175.427 541.43 174.21C544.888 172.826 548.089 170.873 550.9 168.43L557.15 175.81C553.506 178.991 549.342 181.521 544.84 183.29C540.479 184.904 535.86 185.707 531.21 185.66C526.578 185.7 522.018 184.506 518 182.2V182.2ZM547.73 108.83C547.758 106.649 547.345 104.484 546.515 102.466C545.685 100.449 544.455 98.6198 542.9 97.09C541.406 95.5092 539.6 94.2557 537.596 93.4089C535.593 92.562 533.435 92.1401 531.26 92.17C529.054 92.1294 526.863 92.5455 524.826 93.3922C522.788 94.2389 520.948 95.4978 519.42 97.09C517.865 98.6198 516.635 100.449 515.805 102.466C514.975 104.484 514.561 106.649 514.59 108.83V129.66L547.73 129.84V108.83Z" fill="#F9F9F9"/>
<path d="M572.86 83.83H582.51V92C586.55 85.7 592.737 82.5467 601.07 82.54C604.648 82.5508 608.166 83.4622 611.3 85.19C614.606 86.9768 617.507 89.4282 619.82 92.39C621.919 95.3235 623.517 98.5843 624.55 102.04C624.909 103.789 625.16 105.56 625.3 107.34V184.6H615.65V107.88C615.554 106.73 615.363 105.589 615.08 104.47C614.544 102.252 613.519 100.181 612.08 98.41C610.679 96.6387 608.942 95.1606 606.97 94.06C605.001 92.9354 602.795 92.2881 600.53 92.17C600.033 92.0305 599.516 91.9731 599 92C596.947 92.0057 594.912 92.3922 593 93.14C591.079 93.8754 589.315 94.968 587.8 96.36C586.16 97.9937 584.841 99.9203 583.91 102.04C582.98 104.127 582.496 106.385 582.49 108.67V184.6H572.84L572.86 83.83Z" fill="#F9F9F9"/>
<path d="M650.49 180C648.738 178.321 647.348 176.302 646.404 174.066C645.46 171.831 644.982 169.426 645 167V93.49H635.15V83.83H645V51.46H654.65V83.83H670.18V93.49H654.65V167C654.696 169.345 655.649 171.581 657.308 173.239C658.968 174.896 661.205 175.846 663.55 175.89C665.687 175.919 667.809 175.536 669.8 174.76L671.13 174.19V184.42C668.676 185.18 666.119 185.561 663.55 185.55C661.109 185.568 658.691 185.085 656.444 184.13C654.198 183.176 652.171 181.77 650.49 180V180Z" fill="#F9F9F9"/>
<path d="M695.17 182.2C691.17 179.891 687.854 176.562 685.559 172.553C683.265 168.544 682.075 163.999 682.11 159.38V108.64C682.083 105.177 682.746 101.743 684.058 98.5387C685.371 95.3341 687.308 92.4224 689.756 89.9732C692.204 87.524 695.115 85.5861 698.319 84.2722C701.524 82.9583 704.957 82.2947 708.42 82.32C713.007 82.3184 717.513 83.5245 721.485 85.8171C725.458 88.1097 728.757 91.4079 731.05 95.38C733.386 99.4061 734.598 103.986 734.56 108.64V159.38C734.598 164.035 733.386 168.614 731.05 172.64C728.757 176.612 725.458 179.91 721.485 182.203C717.513 184.496 713.007 185.702 708.42 185.7C703.77 185.736 699.195 184.527 695.17 182.2V182.2ZM720.07 171.2C721.641 169.661 722.879 167.816 723.71 165.78C724.541 163.743 724.946 161.559 724.9 159.36V108.64C724.946 106.441 724.541 104.257 723.71 102.22C722.879 100.184 721.641 98.3394 720.07 96.8C718.557 95.2488 716.744 94.023 714.74 93.1976C712.737 92.3722 710.586 91.9647 708.42 92C706.225 91.9773 704.048 92.393 702.015 93.2228C699.983 94.0526 698.137 95.2798 696.585 96.8324C695.034 98.3851 693.808 100.232 692.979 102.265C692.15 104.297 691.736 106.475 691.76 108.67V159.41C691.745 161.599 692.167 163.768 692.999 165.792C693.832 167.816 695.06 169.654 696.611 171.199C698.162 172.743 700.005 173.963 702.032 174.787C704.06 175.612 706.231 176.024 708.42 176C710.585 176.039 712.735 175.634 714.738 174.812C716.742 173.991 718.556 172.768 720.07 171.22V171.2Z" fill="#F9F9F9"/>
<path d="M749.7 50.51H759.36V184.57H749.7V50.51Z" fill="#F9F9F9"/>
<path d="M789.08 182.2C785.098 179.923 781.797 176.622 779.52 172.64C777.188 168.613 775.979 164.034 776.02 159.38V108.64C775.993 105.176 776.656 101.742 777.969 98.5364C779.282 95.3311 781.22 92.419 783.67 89.9696C786.119 87.5203 789.031 85.5825 792.236 84.2693C795.442 82.956 798.876 82.2934 802.34 82.32C806.932 82.3131 811.444 83.5167 815.422 85.8096C819.401 88.1024 822.704 91.4035 825 95.38C827.336 99.4061 828.548 103.986 828.51 108.64V159.38C828.548 164.035 827.336 168.614 825 172.64C822.708 176.611 819.41 179.908 815.44 182.2C811.469 184.493 806.965 185.7 802.38 185.7C797.713 185.744 793.12 184.536 789.08 182.2V182.2ZM813.98 171.2C815.551 169.661 816.789 167.816 817.62 165.78C818.451 163.743 818.856 161.559 818.81 159.36V108.64C818.858 106.443 818.456 104.259 817.629 102.223C816.802 100.186 815.567 98.3411 814 96.8C812.486 95.2471 810.671 94.0202 808.666 93.1948C806.661 92.3693 804.508 91.9627 802.34 92C800.144 91.9759 797.966 92.3906 795.932 93.2198C793.899 94.0491 792.052 95.2761 790.499 96.8288C788.946 98.3816 787.719 100.229 786.89 102.262C786.061 104.296 785.646 106.474 785.67 108.67V159.41C785.655 161.6 786.077 163.77 786.91 165.795C787.744 167.819 788.973 169.658 790.525 171.202C792.077 172.747 793.921 173.967 795.949 174.79C797.978 175.614 800.151 176.025 802.34 176C804.507 176.04 806.659 175.637 808.664 174.815C810.669 173.993 812.485 172.77 814 171.22L813.98 171.2Z" fill="#F9F9F9"/>
<path d="M842.1 200.85L841.34 200.28L847.59 192.9C850.435 195.239 853.626 197.122 857.05 198.48C860.384 199.711 863.916 200.321 867.47 200.28C871.838 200.28 876.027 198.545 879.116 195.456C882.205 192.367 883.94 188.178 883.94 183.81V171.12C879.9 177.433 873.717 180.59 865.39 180.59C861.811 180.582 858.293 179.67 855.16 177.94C851.889 176.18 849.045 173.722 846.83 170.74C844.578 167.874 842.906 164.596 841.91 161.09C841.541 159.342 841.287 157.571 841.15 155.79V107.69C841.403 105.417 841.657 103.65 841.91 102.39C842.909 98.8817 844.58 95.601 846.83 92.73C849 89.8048 851.777 87.3829 854.97 85.63C858.216 83.8139 861.852 82.8087 865.57 82.7C869.254 82.6456 872.896 83.49 876.18 85.16C879.361 86.8271 882.04 89.3126 883.94 92.36V83.83H893.6V183.83C893.595 190.758 890.84 197.402 885.941 202.301C881.042 207.2 874.398 209.955 867.47 209.96C858.186 210.113 849.166 206.874 842.1 200.85V200.85ZM873.44 170C875.36 169.262 877.124 168.17 878.64 166.78C880.277 165.146 881.593 163.219 882.52 161.1C883.455 159.015 883.938 156.755 883.94 154.47V108.83C883.978 106.548 883.525 104.284 882.61 102.193C881.696 100.101 880.342 98.2314 878.64 96.71C876.189 94.458 873.115 92.9998 869.82 92.5269C866.526 92.0539 863.165 92.5884 860.18 94.06C857.905 95.1501 855.925 96.7726 854.41 98.79C852.969 100.56 851.944 102.631 851.41 104.85L850.85 108.26V155.26C850.946 156.41 851.133 157.55 851.41 158.67C851.942 160.887 852.968 162.955 854.41 164.72C855.825 166.515 857.595 168 859.61 169.08C861.556 170.174 863.722 170.82 865.95 170.97C866.443 171.113 866.956 171.177 867.47 171.16C869.514 171.145 871.538 170.751 873.44 170V170Z" fill="#F9F9F9"/>
<path d="M930.14 184.57L905.9 83.83H915.9L935.02 163.93L954.34 83.83H964.18L934.12 209H924.27L930.14 184.57Z" fill="#F9F9F9"/>
<path d="M954.68 67.79H953V66.88H957.32V67.79H955.61V77.53H954.7L954.68 67.79Z" fill="#333333"/>
<path d="M958.33 66.88H959.22L961.22 75.11L963.22 66.88H964V77.53H963.09V70.9L961.55 77.3H960.73L959.2 70.9V77.53H958.29L958.33 66.88Z" fill="#333333"/>
</g>
<defs>
<clipPath id="clip0">
<rect width="964.22" height="246.28" fill="white"/>
</clipPath>
</defs>
</svg>
