<svg width="385" height="359" viewBox="0 0 385 359" fill="none" xmlns="http://www.w3.org/2000/svg">
<path d="M267.5 0.5H384.5V155.5C384.5 253.254 305.254 332.5 207.5 332.5H27.5V240.5C27.5 107.952 134.952 0.5 267.5 0.5Z" stroke="white"/>
<path d="M27 307L29.7907 320.837C30.7579 325.632 34.5392 329.36 39.3478 330.26L54 333L39.3478 335.74C34.5392 336.64 30.7579 340.368 29.7907 345.163L27 359L24.2093 345.163C23.2421 340.368 19.4608 336.64 14.6522 335.74L0 333L14.6522 330.26C19.4608 329.36 23.2421 325.632 24.2093 320.837L27 307Z" fill="white"/>
</svg>
