<svg width="156" height="32" viewBox="0 0 156 32" fill="none" xmlns="http://www.w3.org/2000/svg">
<g clip-path="url(#clip0_0:4038)">
<path d="M57.4047 7.37298H53.1746V25.7212H50.091V7.37298H45.8629V5.65552H57.4047V7.37298Z" fill="#FAFAFA"/>
<path d="M57.4186 12.4624C57.5158 11.9079 57.7583 11.386 58.1237 10.9453C58.4839 10.5433 58.9584 10.2496 59.4897 10.0999C60.1972 9.91065 60.9303 9.82381 61.6647 9.84228H64.7284V11.5597H62.7312C62.3019 11.5511 61.873 11.5896 61.453 11.6742C61.1567 11.7346 60.8918 11.8918 60.704 12.1189C60.5062 12.3917 60.3795 12.7058 60.3345 13.0349C60.2588 13.5468 60.2248 14.0636 60.2327 14.5806V25.7155H57.2369V14.7008C57.2241 13.9509 57.285 13.2014 57.4186 12.4624Z" fill="#FAFAFA"/>
<path d="M69.0065 32.0186L70.828 26.0648L65.6592 9.84424H68.7429L72.238 22.7539L75.9388 9.84424H78.7588L71.8845 32.0282L69.0065 32.0186Z" fill="#FAFAFA"/>
<path d="M83.3682 20.5402C83.3682 21.7043 83.5446 22.5726 83.8974 23.1451C84.2503 23.7175 84.8281 24.0038 85.631 24.0038H90.7418V25.7212H84.7003C83.1145 25.7212 81.9828 25.2633 81.3051 24.3473C80.6274 23.4313 80.2892 22.1623 80.2905 20.5402V10.9797C80.2905 9.28128 80.6287 7.96964 81.3051 7.04476C81.9815 6.11987 83.1132 5.65679 84.7003 5.65552H90.6919V7.37298H85.641C84.8421 7.37298 84.2643 7.62742 83.9074 8.1363C83.5506 8.64518 83.3742 9.59424 83.3782 10.9835L83.3682 20.5402Z" fill="#FAFAFA"/>
<path d="M92.9886 12.4624C93.0805 11.9046 93.3212 11.3788 93.6876 10.9358C94.0471 10.5329 94.5219 10.2391 95.0536 10.0904C95.7604 9.9011 96.4929 9.81425 97.2266 9.83276H100.278V11.5502H98.2811C97.8525 11.5415 97.4243 11.5799 97.0049 11.6647C96.7087 11.7251 96.4438 11.8823 96.256 12.1094C96.0551 12.3854 95.9289 12.7047 95.8885 13.0387C95.8109 13.5505 95.7762 14.0674 95.7846 14.5844V25.7193H92.7888V14.7008C92.7809 13.9503 92.8478 13.2008 92.9886 12.4624Z" fill="#FAFAFA"/>
<path d="M104.576 32.0186L106.396 26.0648L101.227 9.84424H104.311L107.806 22.7539L111.507 9.84424H114.327L107.454 32.0282L104.576 32.0186Z" fill="#FAFAFA"/>
<path d="M122.963 24.0038C123.391 24.0134 123.82 23.975 124.239 23.8893C124.535 23.8305 124.8 23.6738 124.988 23.4466C125.189 23.1698 125.315 22.8499 125.355 22.5153C125.433 22.0036 125.468 21.4867 125.459 20.9696V14.5864C125.468 14.0693 125.433 13.5524 125.355 13.0407C125.315 12.7066 125.189 12.3874 124.988 12.1113C124.8 11.8843 124.535 11.727 124.239 11.6667C123.819 11.5819 123.391 11.5435 122.963 11.5522H119.084V32.0187H116.088V9.83472H124.019C124.753 9.81621 125.485 9.90304 126.192 10.0923C126.724 10.2411 127.199 10.5349 127.558 10.9377C127.924 11.3779 128.167 11.9001 128.263 12.4548C128.404 13.1957 128.471 13.9478 128.463 14.7009V20.8589C128.473 21.6171 128.406 22.3744 128.263 23.1203C128.165 23.6705 127.923 24.188 127.558 24.624C127.199 25.0262 126.724 25.3194 126.192 25.4675C125.485 25.6568 124.753 25.7436 124.019 25.7251H120.7V24.0076L122.963 24.0038Z" fill="#FAFAFA"/>
<path d="M137.826 11.5522H133.744V21.6852C133.744 22.6012 133.877 23.2169 134.143 23.5324C134.409 23.8479 134.923 24.0051 135.685 24.0038H137.007V25.7213H134.482C133.876 25.7379 133.272 25.6406 132.705 25.435C132.256 25.2679 131.861 24.9916 131.559 24.6335C131.267 24.2738 131.056 23.8598 130.941 23.4179C130.808 22.9191 130.741 22.4062 130.742 21.8913V5.65552H133.738V9.83469H137.826V11.5522Z" fill="#FAFAFA"/>
<path d="M147.488 9.83467C148.222 9.81631 148.954 9.90314 149.661 10.0923C150.192 10.242 150.667 10.5357 151.027 10.9377C151.392 11.3784 151.635 11.9003 151.732 12.4548C151.869 13.1961 151.932 13.9481 151.922 14.7008V20.8589C151.934 21.6167 151.87 22.3739 151.732 23.1202C151.634 23.6702 151.391 24.1875 151.027 24.624C150.667 25.0254 150.192 25.3184 149.661 25.4674C148.954 25.6566 148.222 25.7434 147.488 25.7251H143.552C142.818 25.7436 142.085 25.6567 141.379 25.4674C140.847 25.3193 140.372 25.0262 140.013 24.624C139.647 24.1884 139.405 23.6707 139.308 23.1202C139.165 22.3744 139.098 21.6171 139.108 20.8589V14.7008C139.1 13.9478 139.166 13.1957 139.308 12.4548C139.406 11.8982 139.652 11.3751 140.023 10.9358C140.382 10.5329 140.857 10.2391 141.389 10.0904C142.095 9.9011 142.828 9.81425 143.562 9.83276L147.488 9.83467ZM142.112 20.9696C142.103 21.4866 142.138 22.0035 142.216 22.5153C142.256 22.8495 142.382 23.1692 142.581 23.4466C142.769 23.6729 143.034 23.8294 143.33 23.8893C143.75 23.9748 144.179 24.0132 144.608 24.0038H146.43C146.859 24.0133 147.288 23.9749 147.708 23.8893C148.004 23.8305 148.269 23.6737 148.457 23.4466C148.656 23.1688 148.782 22.8494 148.824 22.5153C148.9 22.0034 148.934 21.4866 148.926 20.9696V14.5863C148.934 14.0693 148.9 13.5526 148.824 13.0406C148.782 12.707 148.656 12.3882 148.457 12.1113C148.269 11.8842 148.004 11.727 147.708 11.6666C147.288 11.582 146.859 11.5435 146.43 11.5521H144.616C144.187 11.5436 143.758 11.5821 143.338 11.6666C143.042 11.7279 142.778 11.885 142.589 12.1113C142.389 12.3859 142.262 12.7029 142.22 13.0349C142.142 13.5467 142.107 14.0635 142.116 14.5806L142.112 20.9696Z" fill="#FAFAFA"/>
</g>
<path d="M40.6182 20.8271H33.6046V30.3147H40.6182V20.8271Z" fill="#FFC907"/>
<path d="M10.3912 16.084C10.393 16.7126 10.5289 17.3343 10.7906 17.911C11.0522 18.4877 11.4342 19.0075 11.9131 19.4384C12.9047 20.3363 14.2207 20.8338 15.5867 20.8272H23.7616V30.3147H15.5867C6.98261 30.3147 0 23.9407 0 16.084C0 8.22733 6.98261 1.85327 15.5867 1.85327H40.6181V11.3384H15.5867C14.2205 11.3321 12.9045 11.83 11.9131 12.7283C11.4339 13.1594 11.0518 13.6793 10.7901 14.2563C10.5284 14.8332 10.3927 15.4552 10.3912 16.084Z" fill="#FFC907"/>
<defs>
<clipPath id="clip0_0:4038">
<rect width="113.296" height="25.8142" fill="white" transform="translate(42.7038 5.8291)"/>
</clipPath>
</defs>
</svg>
