<svg width="68" height="68" viewBox="0 0 68 68" fill="none" xmlns="http://www.w3.org/2000/svg">
<g opacity="0.7">
<path d="M66.7272 24.3443C69.4017 21.929 67.5647 17.4963 63.9695 17.6814L53.8177 18.1996C51.5504 18.3153 49.6857 16.446 49.8014 14.1834L50.3196 4.03182C50.5047 0.436657 46.0673 -1.40025 43.6566 1.26951L36.8409 8.81612C35.3233 10.5003 32.6812 10.5003 31.1589 8.81612L24.3478 1.27414C21.9325 -1.40025 17.4998 0.436658 17.6848 4.03645L18.2031 14.188C18.3188 16.4553 16.4494 18.3199 14.1868 18.2043L4.03497 17.686C0.439733 17.501 -1.39722 21.9336 1.27261 24.3489L8.81937 31.1598C10.5036 32.6775 10.5036 35.3195 8.81937 36.8417L1.27261 43.6527C-1.40184 46.068 0.435106 50.5006 4.03497 50.3155L14.1868 49.7973C16.454 49.6816 18.3188 51.5509 18.2031 53.8135L17.6848 63.9651C17.4998 67.5603 21.9371 69.3972 24.3478 66.7274L31.1589 59.1808C32.6812 57.4966 35.3233 57.4966 36.8409 59.1808L43.652 66.7274C46.0673 69.4018 50.5001 67.5649 50.315 63.9651L49.7968 53.8135C49.6811 51.5463 51.5504 49.6816 53.8131 49.7973L63.9649 50.3155C67.5601 50.5006 69.3971 46.0633 66.7226 43.6527L59.1758 36.8417C57.4916 35.3241 57.4916 32.6821 59.1758 31.1598L66.7272 24.3443Z" fill="#F8E889"/>
</g>
</svg>
