<svg width="69" height="68" viewBox="0 0 69 68" fill="none" xmlns="http://www.w3.org/2000/svg">
<path d="M8.23145 56.1378C8.23145 51.0299 11.5538 46.6854 16.1526 45.1366C11.5538 43.5878 8.23145 39.2388 8.23145 34.1353V33.878C8.23145 28.7701 11.5538 24.4255 16.1526 22.8767C11.5538 21.3235 8.23145 16.9745 8.23145 11.8666V11.6092C8.23145 5.47621 13.0215 0.439339 19.0614 0.0266266C19.1192 0.00887555 19.1815 0 19.2437 0H49.1139C49.1762 0 49.2384 0.00887555 49.2962 0.0266266C55.3406 0.439339 60.1262 5.47621 60.1262 11.6092V11.8666C60.1262 16.9745 56.8038 21.3191 52.205 22.8678C56.8083 24.4166 60.1262 28.7656 60.1262 33.8691V34.1265C60.1262 39.2343 56.8038 43.5789 52.205 45.1321C56.8083 46.6809 60.1262 51.0299 60.1262 56.1334V56.3908C60.1262 62.79 54.9091 68 48.4912 68H19.8664C13.4485 68.0089 8.23145 62.7989 8.23145 56.3997V56.1378Z" fill="#DEB8AD"/>
<path d="M66.8579 9.35089L66.8579 58.3709L34.6717 47.1199C34.3513 47.0078 34.0022 47.0078 33.6817 47.1199L1.50003 58.3708L1.50003 9.35099L33.6329 21.8523C33.9827 21.9884 34.3708 21.9884 34.7206 21.8523L66.8579 9.35089Z" stroke="#6E7FCD" stroke-width="3" stroke-linejoin="round"/>
</svg>
